<svg version="1.1" width="512" xmlns="http://www.w3.org/2000/svg" viewBox="-1.5 -1.5 3 4">
<g transform="rotate(142)">
<path fill="none" stroke="red" stroke-width="0.025" d="M  -0.9510565 0.19098301 L -0.9510564 0.80901694 L -0.3632712 0.61803395 L -0.36327124 0.33991867 L -0.5177797 0.33991867 L -0.5177797 0.27811527 L -0.36327124 0.27811524 L -0.3632713 -0.000000029802322 L -0.62777466 0.08594233 L -0.5800289 0.23288864 L -0.6388074 0.25198695 L -0.6865532 0.10504067  Z" alt="TileReference([A])"/>

<path fill="none" stroke="green" stroke-width="0.025" d="M  -0.3632713 -0.000000037650942 L -0.95105654 -0.19098297 L -1.5388417 0.000000067453264 L -1.2743385 0.08594239 L -1.2265927 -0.061003927 L -1.1678141 -0.041905627 L -1.21556 0.105040684 L -0.95105654 0.190983 L -0.6865532 0.10504064 L -0.73429894 -0.041905664 L -0.6755204 -0.06100398 L -0.62777466 0.08594233  Z" alt="TileReference([B])"/>

<path fill="none" stroke="blue" stroke-width="0.025" d="M  -0.3632713 -0 L 0 0.5 L 0.3632713 -0 L 0.19979921 -0.225 L 0.07479921 -0.13418217 L 0.038472086 -0.18418218 L 0.16347209 -0.275 L 0 -0.5 L -0.16347209 -0.275 L -0.038472086 -0.18418218 L -0.07479921 -0.13418217 L -0.19979921 -0.225  Z" alt="TileReference([])"/>


<path stroke="black" fill="none" stroke-width="0.0128" d="M  0.000000029802322 0.5 L -0.000000029802322 -0.5 L -0.9510565 -0.19098301 L -0.9510565 0.25901693 L -0.7010565 0.25901696 L -0.7010565 0.35901695 L -0.9510565 0.35901695 L -0.9510565 0.80901694 L -0.52308106 0.6699593 L -0.6003353 0.4321952 L -0.5052296 0.40129352 L -0.4279754 0.6390576  Z" alt="TileReference([A])"/>
<text x="0.6" y="-0.4" font-size="0.5" fill="green" font-family="sans-serif" transform="rotate(-142)">B</text>
<text x="-0.25" y="0.1" font-size="0.5" fill="blue" font-family="sans-serif" transform="rotate(-142)">C</text>
<text x="0.1" y="-0.6" font-size="0.5" fill="red" font-family="sans-serif" transform="rotate(-142)">A</text>
</g>

<g transform="translate(0.5, 0.5)">
<path fill="none" stroke="magenta" stroke-width="0.025" d="M  0.0000002682209 1.1180341 L 0.00000008940697 0.49999994 L -0.3632714 -0.00000011920929 L -0.3632713 0.2781153 L -0.20876276 0.27811524 L -0.20876276 0.33991864 L -0.3632713 0.33991867 L -0.3632712 0.61803406 L -0.19979905 0.8430341 L -0.074799046 0.7522162 L -0.038471892 0.8022162 L -0.1634719 0.8930341  Z" alt="TileReference([D, D])"/>

<path fill="none" stroke="orange" stroke-width="0.025" d="M  -0.36327115 0.6180341 L -0.9510564 0.8090172 L -0.5877851 1.3090172 L -0.32328176 1.2230748 L -0.37102756 1.0761285 L -0.312249 1.0570302 L -0.26450324 1.2039765 L 0.00000011920929 1.1180341 L -0.16347194 0.89303416 L -0.28847194 0.98385197 L -0.3247991 0.93385196 L -0.19979909 0.84303415  Z" alt="TileReference([E, D])"/>


<path fill="none" stroke="black" stroke-width="0.0128" d="M  -0.95105654 0.80901724 L 0.00000023407048 1.1180341 L 0.9510569 0.8090169 L 0.52308136 0.6699593 L 0.44582713 0.9077235 L 0.35072145 0.8768218 L 0.42797568 0.63905764 L 0.00000012355738 0.5 L -0.4279754 0.63905776 L -0.3507211 0.87682194 L -0.4458267 0.90772367 L -0.523081 0.6699595  Z" alt="TileReference([E, D])"/>

<text x="-0.7" y="1.1" font-size="0.5" fill="orange" font-family="sans-serif">E</text>
<text x="-0.375" y="0.75" font-size="0.5" fill="magenta" font-family="sans-serif">D</text>
</g>




</svg>